<svg width="439" height="313" viewBox="0 0 439 313" fill="none" xmlns="http://www.w3.org/2000/svg">
<path d="M103.268 6.76439C110.278 6.76261 117.27 7.47599 124.137 8.89359C137.39 11.6429 149.974 17.0032 161.164 24.6663C176.667 35.2495 189.053 49.8435 197.021 66.9145C204.989 83.9854 208.244 102.903 206.444 121.679C204.644 140.455 197.856 158.396 186.793 173.616C175.73 188.836 160.801 200.774 143.574 208.175C137.312 210.855 130.8 212.901 124.136 214.284C109.685 217.235 94.7754 217.051 80.4005 213.744C66.0257 210.437 52.5155 204.082 40.77 195.104C29.0244 186.126 19.3132 174.73 12.2832 161.675C5.25319 148.621 1.06578 134.207 -7.62939e-05 119.395C11.3314 122.066 23.1023 122.238 34.5059 119.898C44.7389 117.788 54.4592 113.668 63.1119 107.775C75.9742 99.0291 86.0422 86.714 92.0959 72.3217C94.1414 67.4473 95.7027 62.3809 96.7569 57.1966C99.004 46.0886 98.9209 34.6301 96.5129 23.5563C95.3016 18.019 93.5102 12.6269 91.1689 7.47043C95.185 6.99972 99.2248 6.76397 103.268 6.76439V6.76439Z" fill="#713FFD"/>
<g filter="url(#filter0_f_240_5927)">
<path d="M173.339 39.1688C150.095 18.0888 119.644 13.9842 105.325 30.001C91.0067 46.0179 98.2426 76.0909 121.487 97.1709C144.732 118.251 175.183 122.356 189.501 106.339C203.82 90.3219 196.584 60.2489 173.339 39.1688Z" fill="#A586FC"/>
</g>
<g filter="url(#filter1_d_240_5927)">
<path d="M308.345 281H116.913C98.3426 280.986 80.4976 273.737 67.1137 260.77C53.7298 247.804 45.8447 230.126 45.1092 211.436C44.3737 192.747 50.8448 174.496 63.1677 160.503C75.4906 146.51 92.71 137.862 111.221 136.367C113.861 117.593 122.278 100.125 135.289 86.4201C148.299 72.7155 165.248 63.4641 183.752 59.9676C202.255 56.471 221.381 58.9052 238.439 66.9276C255.497 74.9501 269.628 88.1571 278.845 104.691C295.75 98.7966 314.015 98.1079 331.311 102.712C348.606 107.317 364.148 117.006 375.953 130.544C387.759 144.082 395.293 160.854 397.594 178.723C399.896 196.591 396.861 214.745 388.877 230.869C384.192 245.436 375.045 258.135 362.749 267.141C350.453 276.147 335.641 280.999 320.437 281H308.345Z" fill="url(#paint0_linear_240_5927)"/>
<path d="M320.437 279.992C328.156 279.992 335.746 278.751 342.996 276.302C350.006 273.935 356.587 270.48 362.557 266.033C368.458 261.638 373.631 256.372 377.932 250.384C382.287 244.32 385.649 237.65 387.925 230.559L387.949 230.486L387.983 230.418C391.01 224.326 393.341 217.882 394.911 211.265C396.526 204.456 397.345 197.42 397.345 190.352C397.345 184.269 396.737 178.191 395.537 172.285C394.368 166.53 392.623 160.87 390.352 155.46C388.121 150.149 385.36 145.026 382.146 140.234C378.962 135.487 375.305 131.024 371.278 126.967C367.25 122.91 362.818 119.227 358.105 116.02C353.347 112.783 348.261 110.002 342.988 107.756C337.617 105.468 331.997 103.711 326.283 102.533C320.42 101.324 314.384 100.712 308.345 100.712C298.346 100.712 288.531 102.369 279.172 105.638L278.383 105.914L277.973 105.18C270.357 91.5409 259.279 80.0865 245.937 72.0553C239.189 67.9937 231.94 64.8551 224.391 62.7266C216.602 60.5307 208.512 59.4172 200.345 59.4172C189.361 59.4172 178.638 61.4085 168.475 65.3356C158.657 69.1293 149.65 74.6095 141.705 81.6239C133.806 88.5979 127.251 96.8266 122.221 106.081C117.069 115.563 113.701 125.799 112.211 136.503L112.1 137.304L111.299 137.367C102.341 138.073 93.7219 140.449 85.6818 144.428C77.8694 148.294 70.8932 153.523 64.947 159.97C52.7289 173.217 46 190.477 46 208.569C46 218.212 47.8748 227.565 51.5723 236.37C53.3495 240.602 55.5491 244.684 58.1102 248.502C60.6472 252.284 63.5607 255.841 66.7699 259.073C69.9791 262.305 73.5104 265.24 77.2655 267.795C81.0565 270.374 85.109 272.59 89.3106 274.38C98.0525 278.104 107.339 279.992 116.913 279.992H308.345H320.437ZM320.437 281H308.345H116.913C77.1966 281 45 248.571 45 208.569C45 170.496 74.1646 139.284 111.221 136.363C117.35 92.3096 154.917 58.41 200.345 58.41C234.048 58.41 263.422 77.0664 278.845 104.687C288.087 101.458 298.012 99.7045 308.345 99.7045C358.051 99.7045 398.345 140.289 398.345 190.352C398.345 204.915 394.936 218.675 388.877 230.869C379.54 259.959 352.427 281 320.437 281Z" fill="white" fill-opacity="0.5"/>
</g>
<defs>
<filter id="filter0_f_240_5927" x="77.9741" y="0.230652" width="138.878" height="135.878" filterUnits="userSpaceOnUse" color-interpolation-filters="sRGB">
<feFlood flood-opacity="0" result="BackgroundImageFix"/>
<feBlend mode="normal" in="SourceGraphic" in2="BackgroundImageFix" result="shape"/>
<feGaussianBlur stdDeviation="10" result="effect1_foregroundBlur_240_5927"/>
</filter>
<filter id="filter1_d_240_5927" x="25" y="30.41" width="413.345" height="282.59" filterUnits="userSpaceOnUse" color-interpolation-filters="sRGB">
<feFlood flood-opacity="0" result="BackgroundImageFix"/>
<feColorMatrix in="SourceAlpha" type="matrix" values="0 0 0 0 0 0 0 0 0 0 0 0 0 0 0 0 0 0 127 0" result="hardAlpha"/>
<feOffset dx="10" dy="2"/>
<feGaussianBlur stdDeviation="15"/>
<feColorMatrix type="matrix" values="0 0 0 0 0.258824 0 0 0 0 0.627451 0 0 0 0 0.941176 0 0 0 0.596 0"/>
<feBlend mode="normal" in2="BackgroundImageFix" result="effect1_dropShadow_240_5927"/>
<feBlend mode="normal" in="SourceGraphic" in2="effect1_dropShadow_240_5927" result="shape"/>
</filter>
<linearGradient id="paint0_linear_240_5927" x1="221.698" y1="58.4126" x2="325.604" y2="307.836" gradientUnits="userSpaceOnUse">
<stop stop-color="white" stop-opacity="0.604"/>
<stop offset="1" stop-color="white" stop-opacity="0.2"/>
</linearGradient>
</defs>
</svg>
